<?xml version="1.0" encoding="UTF-8" standalone="no"?> <!DOCTYPE svg PUBLIC "-//W3C//DTD SVG 1.1//EN" "http://www.w3.org/Graphics/SVG/1.1/DTD/svg11.dtd"> <!-- Generated by graphviz version 2.40.1 (20161225.0304) --> <!-- Title: G Pages: 1 --> <svg width="792pt" height="1599pt" viewBox="0.00 0.00 792.00 1598.68" xmlns="http://www.w3.org/2000/svg" xmlns:xlink="http://www.w3.org/1999/xlink"> <g id="graph0" class="graph" transform="scale(1 1) rotate(0) translate(4 1594.6772)"> <title>G</title> <polygon fill="#ffffff" stroke="transparent" points="-4,4 -4,-1594.6772 788,-1594.6772 788,4 -4,4"/> <g id="clust1" class="cluster"> <title>cluster_prototyping_phase</title> <polygon fill="none" stroke="#000000" points="444,-1325.8772 444,-1546.6772 726,-1546.6772 726,-1325.8772 444,-1325.8772"/> <text text-anchor="middle" x="585" y="-1530.0772" font-family="Times,serif" font-size="14.00" fill="#000000">Prototyping phase</text> </g> <g id="clust2" class="cluster"> <title>cluster_pre_commitment_phase</title> <polygon fill="none" stroke="#000000" points="350,-1074.2459 350,-1317.8772 726,-1317.8772 726,-1074.2459 350,-1074.2459"/> <text text-anchor="middle" x="538" y="-1301.2772" font-family="Times,serif" font-size="14.00" fill="#000000">Pre&#45;commitment phase</text> </g> <g id="clust3" class="cluster"> <title>cluster_commitment_phase</title> <polygon fill="none" stroke="#000000" points="421,-822.6146 421,-1066.2459 635,-1066.2459 635,-822.6146 421,-822.6146"/> <text text-anchor="middle" x="528" y="-1049.6459" font-family="Times,serif" font-size="14.00" fill="#000000">Commitment phase</text> </g> <g id="clust4" class="cluster"> <title>cluster_pre_release_phase</title> <polygon fill="none" stroke="#000000" points="114,-377.8146 114,-814.6146 654,-814.6146 654,-377.8146 114,-377.8146"/> <text text-anchor="middle" x="384" y="-798.0146" font-family="Times,serif" font-size="14.00" fill="#000000">Pre&#45;release phase</text> </g> <g id="clust5" class="cluster"> <title>cluster_release_phase</title> <polygon fill="none" stroke="#000000" points="176,-221.0146 176,-369.8146 348,-369.8146 348,-221.0146 176,-221.0146"/> <text text-anchor="middle" x="262" y="-353.2146" font-family="Times,serif" font-size="14.00" fill="#000000">Release phase</text> </g> <g id="clust6" class="cluster"> <title>cluster_post_release_phase</title> <polygon fill="none" stroke="#000000" points="8,-64.2146 8,-213.0146 368,-213.0146 368,-64.2146 8,-64.2146"/> <text text-anchor="middle" x="188" y="-196.4146" font-family="Times,serif" font-size="14.00" fill="#000000">Post&#45;release phase</text> </g> <!-- start --> <g id="node1" class="node"> <title>start</title> <polygon fill="none" stroke="#000000" points="646,-1590.6772 606.7627,-1572.6772 646,-1554.6772 685.2373,-1572.6772 646,-1590.6772"/> <polyline fill="none" stroke="#000000" points="617.6698,-1577.6808 617.6698,-1567.6736 "/> <polyline fill="none" stroke="#000000" points="635.0929,-1559.6808 656.9071,-1559.6808 "/> <polyline fill="none" stroke="#000000" points="674.3302,-1567.6736 674.3302,-1577.6808 "/> <polyline fill="none" stroke="#000000" points="656.9071,-1585.6736 635.0929,-1585.6736 "/> <text text-anchor="middle" x="646" y="-1568.4772" font-family="Times,serif" font-size="14.00" fill="#000000">start</text> </g> <!-- prototype_build --> <g id="node3" class="node"> <title>prototype_build</title> <ellipse fill="none" stroke="#000000" cx="646" cy="-1495.8772" rx="71.853" ry="18"/> <text text-anchor="middle" x="646" y="-1491.6772" font-family="Times,serif" font-size="14.00" fill="#000000">Build prototype</text> </g> <!-- start&#45;&gt;prototype_build --> <g id="edge1" class="edge"> <title>start&#45;&gt;prototype_build</title> <path fill="none" stroke="#000000" d="M646,-1554.4766C646,-1545.3904 646,-1534.1948 646,-1524.032"/> <polygon fill="#000000" stroke="#000000" points="649.5001,-1523.947 646,-1513.9471 642.5001,-1523.9471 649.5001,-1523.947"/> </g> <!-- end --> <g id="node2" class="node"> <title>end</title> <polygon fill="none" stroke="#000000" points="343.2152,-36.3225 306.7848,-36.3225 306.7848,.1079 343.2152,.1079 343.2152,-36.3225"/> <polyline fill="none" stroke="#000000" points="318.7848,-36.3225 306.7848,-24.3225 "/> <polyline fill="none" stroke="#000000" points="306.7848,-11.8921 318.7848,.1079 "/> <polyline fill="none" stroke="#000000" points="331.2152,.1079 343.2152,-11.8921 "/> <polyline fill="none" stroke="#000000" points="343.2152,-24.3225 331.2152,-36.3225 "/> <text text-anchor="middle" x="325" y="-13.9073" font-family="Times,serif" font-size="14.00" fill="#000000">end</text> </g> <!-- prototype_evaluate --> <g id="node4" class="node"> <title>prototype_evaluate</title> <ellipse fill="none" stroke="#000000" cx="575" cy="-1423.8772" rx="123.2746" ry="18"/> <text text-anchor="middle" x="575" y="-1419.6772" font-family="Times,serif" font-size="14.00" fill="#000000">Evaluate prototype: is it fun?</text> </g> <!-- prototype_build&#45;&gt;prototype_evaluate --> <g id="edge2" class="edge"> <title>prototype_build&#45;&gt;prototype_evaluate</title> <path fill="none" stroke="#000000" d="M628.4494,-1478.0794C619.8303,-1469.3389 609.2956,-1458.6558 599.8642,-1449.0916"/> <polygon fill="#000000" stroke="#000000" points="602.1083,-1446.3826 592.5947,-1441.7197 597.1241,-1451.2976 602.1083,-1446.3826"/> </g> <!-- prototype_not_viable --> <g id="node5" class="node"> <title>prototype_not_viable</title> <ellipse fill="none" stroke="#000000" cx="679" cy="-1351.8772" rx="27" ry="18"/> <text text-anchor="middle" x="679" y="-1347.6772" font-family="Times,serif" font-size="14.00" fill="#000000">No</text> </g> <!-- prototype_evaluate&#45;&gt;prototype_not_viable --> <g id="edge3" class="edge"> <title>prototype_evaluate&#45;&gt;prototype_not_viable</title> <path fill="none" stroke="#000000" d="M600.4413,-1406.264C615.9673,-1395.5152 635.8114,-1381.777 651.6705,-1370.7976"/> <polygon fill="#000000" stroke="#000000" points="653.7887,-1373.5881 660.0184,-1365.0183 649.8042,-1367.8328 653.7887,-1373.5881"/> </g> <!-- prototype_viable --> <g id="node6" class="node"> <title>prototype_viable</title> <ellipse fill="none" stroke="#000000" cx="562" cy="-1351.8772" rx="27" ry="18"/> <text text-anchor="middle" x="562" y="-1347.6772" font-family="Times,serif" font-size="14.00" fill="#000000">Yes</text> </g> <!-- prototype_evaluate&#45;&gt;prototype_viable --> <g id="edge5" class="edge"> <title>prototype_evaluate&#45;&gt;prototype_viable</title> <path fill="none" stroke="#000000" d="M571.7196,-1405.7085C570.3078,-1397.8897 568.625,-1388.5694 567.0595,-1379.8993"/> <polygon fill="#000000" stroke="#000000" points="570.4556,-1379.0095 565.2344,-1369.7906 563.567,-1380.2534 570.4556,-1379.0095"/> </g> <!-- prototype_not_viable&#45;&gt;prototype_build --> <g id="edge4" class="edge"> <title>prototype_not_viable&#45;&gt;prototype_build</title> <path fill="none" stroke="#000000" d="M691.0842,-1368.2429C703.0688,-1386.6194 718.1531,-1417.1087 707,-1441.8772 701.5471,-1453.9868 691.8877,-1464.478 681.8412,-1472.9088"/> <polygon fill="#000000" stroke="#000000" points="679.4936,-1470.3015 673.7741,-1479.2199 683.8068,-1475.8148 679.4936,-1470.3015"/> </g> <!-- mvp_build --> <g id="node7" class="node"> <title>mvp_build</title> <ellipse fill="none" stroke="#000000" cx="551" cy="-1267.0772" rx="55.6783" ry="18"/> <text text-anchor="middle" x="551" y="-1262.8772" font-family="Times,serif" font-size="14.00" fill="#000000">Build MVP</text> </g> <!-- prototype_viable&#45;&gt;mvp_build --> <g id="edge6" class="edge"> <title>prototype_viable&#45;&gt;mvp_build</title> <path fill="none" stroke="#000000" d="M559.6672,-1333.8933C558.2186,-1322.7264 556.3255,-1308.1319 554.6782,-1295.4325"/> <polygon fill="#000000" stroke="#000000" points="558.1248,-1294.7941 553.3674,-1285.3275 551.1829,-1295.6947 558.1248,-1294.7941"/> </g> <!-- market_research --> <g id="node8" class="node"> <title>market_research</title> <ellipse fill="none" stroke="#000000" cx="528" cy="-1183.6615" rx="169.7866" ry="29.3315"/> <text text-anchor="middle" x="528" y="-1187.8615" font-family="Times,serif" font-size="14.00" fill="#000000">Do market research.</text> <text text-anchor="middle" x="528" y="-1171.0615" font-family="Times,serif" font-size="14.00" fill="#000000">Is the game viable according to market?</text> </g> <!-- mvp_build&#45;&gt;market_research --> <g id="edge7" class="edge"> <title>mvp_build&#45;&gt;market_research</title> <path fill="none" stroke="#000000" d="M546.0093,-1248.9772C543.8942,-1241.3061 541.341,-1232.0463 538.8305,-1222.9413"/> <polygon fill="#000000" stroke="#000000" points="542.1781,-1221.9146 536.1459,-1213.2047 535.4299,-1223.7753 542.1781,-1221.9146"/> </g> <!-- market_research_viable --> <g id="node9" class="node"> <title>market_research_viable</title> <ellipse fill="none" stroke="#000000" cx="528" cy="-1100.2459" rx="27" ry="18"/> <text text-anchor="middle" x="528" y="-1096.0459" font-family="Times,serif" font-size="14.00" fill="#000000">Yes</text> </g> <!-- market_research&#45;&gt;market_research_viable --> <g id="edge8" class="edge"> <title>market_research&#45;&gt;market_research_viable</title> <path fill="none" stroke="#000000" d="M528,-1154.0174C528,-1145.8122 528,-1136.9255 528,-1128.7847"/> <polygon fill="#000000" stroke="#000000" points="531.5001,-1128.6324 528,-1118.6325 524.5001,-1128.6325 531.5001,-1128.6324"/> </g> <!-- market_research_not_viable --> <g id="node10" class="node"> <title>market_research_not_viable</title> <ellipse fill="none" stroke="#000000" cx="691" cy="-1100.2459" rx="27" ry="18"/> <text text-anchor="middle" x="691" y="-1096.0459" font-family="Times,serif" font-size="14.00" fill="#000000">No</text> </g> <!-- market_research&#45;&gt;market_research_not_viable --> <g id="edge10" class="edge"> <title>market_research&#45;&gt;market_research_not_viable</title> <path fill="none" stroke="#000000" d="M582.7301,-1155.6533C608.5108,-1142.4599 638.3118,-1127.2092 660.1139,-1116.0519"/> <polygon fill="#000000" stroke="#000000" points="661.9209,-1119.0589 669.2284,-1111.3875 658.7319,-1112.8275 661.9209,-1119.0589"/> </g> <!-- business_plan --> <g id="node11" class="node"> <title>business_plan</title> <ellipse fill="none" stroke="#000000" cx="528" cy="-1004.0302" rx="98.9709" ry="29.3315"/> <text text-anchor="middle" x="528" y="-1008.2302" font-family="Times,serif" font-size="14.00" fill="#000000">Make a business plan.</text> <text text-anchor="middle" x="528" y="-991.4302" font-family="Times,serif" font-size="14.00" fill="#000000">Is it viable?</text> </g> <!-- market_research_viable&#45;&gt;business_plan --> <g id="edge9" class="edge"> <title>market_research_viable&#45;&gt;business_plan</title> <path fill="none" stroke="#000000" d="M528,-1082.1485C528,-1071.4101 528,-1057.3502 528,-1044.1222"/> <polygon fill="#000000" stroke="#000000" points="531.5001,-1043.7714 528,-1033.7714 524.5001,-1043.7715 531.5001,-1043.7714"/> </g> <!-- market_research_not_viable&#45;&gt;prototype_build --> <g id="edge11" class="edge"> <title>market_research_not_viable&#45;&gt;prototype_build</title> <path fill="none" stroke="#000000" d="M700.5803,-1117.1697C716.3381,-1146.6449 746,-1209.7425 746,-1267.0772 746,-1351.8772 746,-1351.8772 746,-1351.8772 746,-1394.4813 737.8215,-1407.2506 713,-1441.8772 704.4552,-1453.7974 692.6109,-1464.5165 681.2544,-1473.2026"/> <polygon fill="#000000" stroke="#000000" points="679.125,-1470.4238 673.1255,-1479.1562 683.2612,-1476.0711 679.125,-1470.4238"/> </g> <!-- market_research_not_viable&#45;&gt;mvp_build --> <g id="edge12" class="edge"> <title>market_research_not_viable&#45;&gt;mvp_build</title> <path fill="none" stroke="#000000" d="M700.2399,-1117.2973C711.7124,-1141.0465 727.4271,-1184.3899 707,-1213.0772 695.0464,-1229.8645 647.2921,-1244.8322 607.7329,-1254.7268"/> <polygon fill="#000000" stroke="#000000" points="606.7642,-1251.3604 597.8788,-1257.1311 608.4235,-1258.1609 606.7642,-1251.3604"/> </g> <!-- business_plan_viable --> <g id="node12" class="node"> <title>business_plan_viable</title> <ellipse fill="none" stroke="#000000" cx="483" cy="-920.6146" rx="27" ry="18"/> <text text-anchor="middle" x="483" y="-916.4146" font-family="Times,serif" font-size="14.00" fill="#000000">Yes</text> </g> <!-- business_plan&#45;&gt;business_plan_viable --> <g id="edge17" class="edge"> <title>business_plan&#45;&gt;business_plan_viable</title> <path fill="none" stroke="#000000" d="M512.2612,-974.8555C507.2951,-965.65 501.8446,-955.5465 497.0078,-946.5805"/> <polygon fill="#000000" stroke="#000000" points="500.0637,-944.8734 492.2354,-937.7341 493.903,-948.1969 500.0637,-944.8734"/> </g> <!-- business_plan_not_viable --> <g id="node13" class="node"> <title>business_plan_not_viable</title> <ellipse fill="none" stroke="#000000" cx="555" cy="-920.6146" rx="27" ry="18"/> <text text-anchor="middle" x="555" y="-916.4146" font-family="Times,serif" font-size="14.00" fill="#000000">No</text> </g> <!-- business_plan&#45;&gt;business_plan_not_viable --> <g id="edge13" class="edge"> <title>business_plan&#45;&gt;business_plan_not_viable</title> <path fill="none" stroke="#000000" d="M531.1027,-974.3861C533.6165,-965.4039 536.8459,-955.6049 540.1846,-946.8618"/> <polygon fill="#000000" stroke="#000000" points="543.4507,-948.1212 543.9684,-937.539 536.9646,-945.4886 543.4507,-948.1212"/> </g> <!-- commit --> <g id="node14" class="node"> <title>commit</title> <ellipse fill="none" stroke="#000000" cx="511" cy="-848.6146" rx="81.7001" ry="18"/> <text text-anchor="middle" x="511" y="-844.4146" font-family="Times,serif" font-size="14.00" fill="#000000">Commit to project</text> </g> <!-- business_plan_viable&#45;&gt;commit --> <g id="edge18" class="edge"> <title>business_plan_viable&#45;&gt;commit</title> <path fill="none" stroke="#000000" d="M489.778,-903.1854C492.9396,-895.0555 496.7779,-885.1856 500.3164,-876.0868"/> <polygon fill="#000000" stroke="#000000" points="503.6295,-877.2238 503.992,-866.6352 497.1054,-874.6867 503.6295,-877.2238"/> </g> <!-- business_plan_not_viable&#45;&gt;prototype_build --> <g id="edge16" class="edge"> <title>business_plan_not_viable&#45;&gt;prototype_build</title> <path fill="none" stroke="#000000" d="M580.382,-927.3351C640.0049,-944.8218 784,-997.672 784,-1100.2459 784,-1351.8772 784,-1351.8772 784,-1351.8772 784,-1396.799 768.8256,-1409.2007 738,-1441.8772 725.1453,-1455.5037 708.0863,-1466.7923 692.1521,-1475.4633"/> <polygon fill="#000000" stroke="#000000" points="690.1909,-1472.5385 682.9405,-1480.264 693.4261,-1478.7461 690.1909,-1472.5385"/> </g> <!-- business_plan_not_viable&#45;&gt;mvp_build --> <g id="edge15" class="edge"> <title>business_plan_not_viable&#45;&gt;mvp_build</title> <path fill="none" stroke="#000000" d="M533.4877,-931.874C528.7621,-934.2054 523.7501,-936.5714 519,-938.6146 475.9911,-957.1141 453.5602,-941.9693 420,-974.6146 358.5781,-1034.362 298.5307,-1147.3438 349,-1213.0772 366.0821,-1235.3256 436.153,-1250.3912 489.012,-1258.8383"/> <polygon fill="#000000" stroke="#000000" points="488.5802,-1262.3131 498.9989,-1260.3892 489.6544,-1255.396 488.5802,-1262.3131"/> </g> <!-- business_plan_not_viable&#45;&gt;business_plan --> <g id="edge14" class="edge"> <title>business_plan_not_viable&#45;&gt;business_plan</title> <path fill="none" stroke="#000000" d="M554.8198,-938.7146C553.0851,-946.5471 550.3657,-956.036 547.2625,-965.3252"/> <polygon fill="#000000" stroke="#000000" points="543.9268,-964.2607 543.9148,-974.8555 550.5312,-966.5806 543.9268,-964.2607"/> </g> <!-- post_commitment_advertise --> <g id="node15" class="node"> <title>post_commitment_advertise</title> <ellipse fill="none" stroke="#000000" cx="511" cy="-763.8146" rx="120.4245" ry="18"/> <text text-anchor="middle" x="511" y="-759.6146" font-family="Times,serif" font-size="14.00" fill="#000000">post_commitment_advertise</text> </g> <!-- commit&#45;&gt;post_commitment_advertise --> <g id="edge19" class="edge"> <title>commit&#45;&gt;post_commitment_advertise</title> <path fill="none" stroke="#000000" d="M511,-830.2143C511,-819.0258 511,-804.5129 511,-791.91"/> <polygon fill="#000000" stroke="#000000" points="514.5001,-791.8877 511,-781.8877 507.5001,-791.8877 514.5001,-791.8877"/> </g> <!-- mvp_improvement --> <g id="node16" class="node"> <title>mvp_improvement</title> <ellipse fill="none" stroke="#000000" cx="511" cy="-691.8146" rx="84.5556" ry="18"/> <text text-anchor="middle" x="511" y="-687.6146" font-family="Times,serif" font-size="14.00" fill="#000000">mvp_improvement</text> </g> <!-- post_commitment_advertise&#45;&gt;mvp_improvement --> <g id="edge20" class="edge"> <title>post_commitment_advertise&#45;&gt;mvp_improvement</title> <path fill="none" stroke="#000000" d="M505.0476,-745.646C504.2972,-737.9456 504.0763,-728.7889 504.3849,-720.2312"/> <polygon fill="#000000" stroke="#000000" points="507.8792,-720.4307 505.024,-710.2279 500.8935,-719.9843 507.8792,-720.4307"/> </g> <!-- mvp_improvement&#45;&gt;post_commitment_advertise --> <g id="edge21" class="edge"> <title>mvp_improvement&#45;&gt;post_commitment_advertise</title> <path fill="none" stroke="#000000" d="M516.976,-710.2279C517.7071,-717.8739 517.9203,-726.923 517.6155,-735.3872"/> <polygon fill="#000000" stroke="#000000" points="514.1048,-735.441 516.9524,-745.646 521.0902,-735.8926 514.1048,-735.441"/> </g> <!-- mvp_improvement_evaluate --> <g id="node17" class="node"> <title>mvp_improvement_evaluate</title> <ellipse fill="none" stroke="#000000" cx="370" cy="-619.8146" rx="121.5548" ry="18"/> <text text-anchor="middle" x="370" y="-615.6146" font-family="Times,serif" font-size="14.00" fill="#000000">mvp_improvement_evaluate</text> </g> <!-- mvp_improvement&#45;&gt;mvp_improvement_evaluate --> <g id="edge22" class="edge"> <title>mvp_improvement&#45;&gt;mvp_improvement_evaluate</title> <path fill="none" stroke="#000000" d="M478.2974,-675.1154C458.88,-665.2001 434.0316,-652.5116 413.0354,-641.7901"/> <polygon fill="#000000" stroke="#000000" points="414.4951,-638.6057 403.9973,-637.1749 411.3117,-644.8399 414.4951,-638.6057"/> </g> <!-- mvp_improvement_viable --> <g id="node18" class="node"> <title>mvp_improvement_viable</title> <ellipse fill="none" stroke="#000000" cx="235" cy="-547.8146" rx="112.908" ry="18"/> <text text-anchor="middle" x="235" y="-543.6146" font-family="Times,serif" font-size="14.00" fill="#000000">mvp_improvement_viable</text> </g> <!-- mvp_improvement_evaluate&#45;&gt;mvp_improvement_viable --> <g id="edge23" class="edge"> <title>mvp_improvement_evaluate&#45;&gt;mvp_improvement_viable</title> <path fill="none" stroke="#000000" d="M337.3203,-602.3854C318.9968,-592.6129 295.9592,-580.3262 276.3854,-569.8868"/> <polygon fill="#000000" stroke="#000000" points="277.8494,-566.701 267.3788,-565.0833 274.5553,-572.8775 277.8494,-566.701"/> </g> <!-- mvp_improvement_not_viable --> <g id="node19" class="node"> <title>mvp_improvement_not_viable</title> <ellipse fill="none" stroke="#000000" cx="496" cy="-547.8146" rx="130.2462" ry="18"/> <text text-anchor="middle" x="496" y="-543.6146" font-family="Times,serif" font-size="14.00" fill="#000000">mvp_improvement_not_viable</text> </g> <!-- mvp_improvement_evaluate&#45;&gt;mvp_improvement_not_viable --> <g id="edge25" class="edge"> <title>mvp_improvement_evaluate&#45;&gt;mvp_improvement_not_viable</title> <path fill="none" stroke="#000000" d="M400.5011,-602.3854C417.2468,-592.8164 438.211,-580.8369 456.228,-570.5415"/> <polygon fill="#000000" stroke="#000000" points="458.3971,-573.3331 465.3431,-565.3328 454.9241,-567.2554 458.3971,-573.3331"/> </g> <!-- is_game_finished --> <g id="node20" class="node"> <title>is_game_finished</title> <ellipse fill="none" stroke="#000000" cx="262" cy="-475.8146" rx="79.3135" ry="18"/> <text text-anchor="middle" x="262" y="-471.6146" font-family="Times,serif" font-size="14.00" fill="#000000">is_game_finished</text> </g> <!-- mvp_improvement_viable&#45;&gt;is_game_finished --> <g id="edge24" class="edge"> <title>mvp_improvement_viable&#45;&gt;is_game_finished</title> <path fill="none" stroke="#000000" d="M241.8132,-529.646C244.7644,-521.7763 248.2858,-512.3858 251.555,-503.6679"/> <polygon fill="#000000" stroke="#000000" points="254.8609,-504.8201 255.095,-494.2279 248.3066,-502.3622 254.8609,-504.8201"/> </g> <!-- mvp_improvement_not_viable&#45;&gt;mvp_improvement --> <g id="edge26" class="edge"> <title>mvp_improvement_not_viable&#45;&gt;mvp_improvement</title> <path fill="none" stroke="#000000" d="M497.8843,-565.9042C500.4347,-590.3873 505.0122,-634.332 508.0283,-663.2859"/> <polygon fill="#000000" stroke="#000000" points="504.5829,-663.9934 509.1002,-673.5769 511.5453,-663.2681 504.5829,-663.9934"/> </g> <!-- is_game_finished_no --> <g id="node21" class="node"> <title>is_game_finished_no</title> <ellipse fill="none" stroke="#000000" cx="498" cy="-403.8146" rx="93.7842" ry="18"/> <text text-anchor="middle" x="498" y="-399.6146" font-family="Times,serif" font-size="14.00" fill="#000000">is_game_finished_no</text> </g> <!-- is_game_finished&#45;&gt;is_game_finished_no --> <g id="edge27" class="edge"> <title>is_game_finished&#45;&gt;is_game_finished_no</title> <path fill="none" stroke="#000000" d="M309.4742,-461.3309C346.5301,-450.0258 398.2425,-434.2491 438.1363,-422.0781"/> <polygon fill="#000000" stroke="#000000" points="439.2051,-425.4114 447.7485,-419.1456 437.1624,-418.716 439.2051,-425.4114"/> </g> <!-- is_game_finished_yes --> <g id="node22" class="node"> <title>is_game_finished_yes</title> <ellipse fill="none" stroke="#000000" cx="262" cy="-403.8146" rx="96.7119" ry="18"/> <text text-anchor="middle" x="262" y="-399.6146" font-family="Times,serif" font-size="14.00" fill="#000000">is_game_finished_yes</text> </g> <!-- is_game_finished&#45;&gt;is_game_finished_yes --> <g id="edge29" class="edge"> <title>is_game_finished&#45;&gt;is_game_finished_yes</title> <path fill="none" stroke="#000000" d="M262,-457.646C262,-449.9456 262,-440.7889 262,-432.2312"/> <polygon fill="#000000" stroke="#000000" points="265.5001,-432.2278 262,-422.2279 258.5001,-432.2279 265.5001,-432.2278"/> </g> <!-- is_game_finished_no&#45;&gt;mvp_improvement --> <g id="edge28" class="edge"> <title>is_game_finished_no&#45;&gt;mvp_improvement</title> <path fill="none" stroke="#000000" d="M528.2978,-420.995C561.6186,-441.8362 613.3109,-480.3997 635,-529.8146 659.622,-585.9116 594.3639,-640.1592 549.4421,-669.4474"/> <polygon fill="#000000" stroke="#000000" points="547.3231,-666.647 540.7615,-674.9654 551.0784,-672.5545 547.3231,-666.647"/> </g> <!-- release_advertise --> <g id="node24" class="node"> <title>release_advertise</title> <ellipse fill="none" stroke="#000000" cx="262" cy="-319.0146" rx="77.5414" ry="18"/> <text text-anchor="middle" x="262" y="-314.8146" font-family="Times,serif" font-size="14.00" fill="#000000">release_advertise</text> </g> <!-- is_game_finished_yes&#45;&gt;release_advertise --> <g id="edge30" class="edge"> <title>is_game_finished_yes&#45;&gt;release_advertise</title> <path fill="none" stroke="#000000" d="M262,-385.4143C262,-374.2258 262,-359.7129 262,-347.11"/> <polygon fill="#000000" stroke="#000000" points="265.5001,-347.0877 262,-337.0877 258.5001,-347.0877 265.5001,-347.0877"/> </g> <!-- release_game --> <g id="node23" class="node"> <title>release_game</title> <ellipse fill="none" stroke="#000000" cx="262" cy="-247.0146" rx="63.66" ry="18"/> <text text-anchor="middle" x="262" y="-242.8146" font-family="Times,serif" font-size="14.00" fill="#000000">release_game</text> </g> <!-- maintain_game --> <g id="node25" class="node"> <title>maintain_game</title> <ellipse fill="none" stroke="#000000" cx="262" cy="-162.2146" rx="70.6451" ry="18"/> <text text-anchor="middle" x="262" y="-158.0146" font-family="Times,serif" font-size="14.00" fill="#000000">maintain_game</text> </g> <!-- release_game&#45;&gt;maintain_game --> <g id="edge32" class="edge"> <title>release_game&#45;&gt;maintain_game</title> <path fill="none" stroke="#000000" d="M262,-228.6143C262,-217.4258 262,-202.9129 262,-190.31"/> <polygon fill="#000000" stroke="#000000" points="265.5001,-190.2877 262,-180.2877 258.5001,-190.2877 265.5001,-190.2877"/> </g> <!-- release_advertise&#45;&gt;release_game --> <g id="edge31" class="edge"> <title>release_advertise&#45;&gt;release_game</title> <path fill="none" stroke="#000000" d="M262,-300.846C262,-293.1456 262,-283.9889 262,-275.4312"/> <polygon fill="#000000" stroke="#000000" points="265.5001,-275.4278 262,-265.4279 258.5001,-275.4279 265.5001,-275.4278"/> </g> <!-- maintain_game&#45;&gt;end --> <g id="edge37" class="edge"> <title>maintain_game&#45;&gt;end</title> <path fill="none" stroke="#000000" d="M312.4868,-149.5559C333.7902,-141.4473 356.5122,-128.5048 369,-108.2146 379.2499,-91.5605 376.2719,-82.3678 369,-64.2146 365.1928,-54.7104 358.3894,-46.0531 351.2531,-38.8721"/> <polygon fill="#000000" stroke="#000000" points="353.218,-35.9209 343.5049,-31.6892 348.459,-41.0544 353.218,-35.9209"/> </g> <!-- expand_game --> <g id="node26" class="node"> <title>expand_game</title> <ellipse fill="none" stroke="#000000" cx="81" cy="-90.2146" rx="64.8331" ry="18"/> <text text-anchor="middle" x="81" y="-86.0146" font-family="Times,serif" font-size="14.00" fill="#000000">expand_game</text> </g> <!-- maintain_game&#45;&gt;expand_game --> <g id="edge35" class="edge"> <title>maintain_game&#45;&gt;expand_game</title> <path fill="none" stroke="#000000" d="M219.8233,-147.6443C190.9503,-136.7167 152.8924,-121.6471 123.8771,-109.6865"/> <polygon fill="#000000" stroke="#000000" points="124.988,-106.3582 114.4101,-105.76 122.3062,-112.8241 124.988,-106.3582"/> </g> <!-- post_release_advertise --> <g id="node27" class="node"> <title>post_release_advertise</title> <ellipse fill="none" stroke="#000000" cx="262" cy="-90.2146" rx="98.3908" ry="18"/> <text text-anchor="middle" x="262" y="-86.0146" font-family="Times,serif" font-size="14.00" fill="#000000">post_release_advertise</text> </g> <!-- maintain_game&#45;&gt;post_release_advertise --> <g id="edge33" class="edge"> <title>maintain_game&#45;&gt;post_release_advertise</title> <path fill="none" stroke="#000000" d="M256.0476,-144.046C255.2972,-136.3456 255.0763,-127.1889 255.3849,-118.6312"/> <polygon fill="#000000" stroke="#000000" points="258.8792,-118.8307 256.024,-108.6279 251.8935,-118.3843 258.8792,-118.8307"/> </g> <!-- expand_game&#45;&gt;maintain_game --> <g id="edge36" class="edge"> <title>expand_game&#45;&gt;maintain_game</title> <path fill="none" stroke="#000000" d="M121.8234,-104.2732C150.6114,-115.1475 189.009,-130.3398 218.3876,-142.4397"/> <polygon fill="#000000" stroke="#000000" points="217.4,-145.819 227.9781,-146.4139 220.0798,-139.3522 217.4,-145.819"/> </g> <!-- post_release_advertise&#45;&gt;end --> <g id="edge38" class="edge"> <title>post_release_advertise&#45;&gt;end</title> <path fill="none" stroke="#000000" d="M277.573,-72.3903C285.0883,-63.7886 294.2449,-53.3083 302.501,-43.8587"/> <polygon fill="#000000" stroke="#000000" points="305.2247,-46.0609 309.1685,-36.2274 299.9533,-41.4552 305.2247,-46.0609"/> </g> <!-- post_release_advertise&#45;&gt;maintain_game --> <g id="edge34" class="edge"> <title>post_release_advertise&#45;&gt;maintain_game</title> <path fill="none" stroke="#000000" d="M267.976,-108.6279C268.7071,-116.2739 268.9203,-125.323 268.6155,-133.7872"/> <polygon fill="#000000" stroke="#000000" points="265.1048,-133.841 267.9524,-144.046 272.0902,-134.2926 265.1048,-133.841"/> </g> </g> </svg>
